<?xml version="1.0" standalone="no"?>
<svg xmlns:xlink="http://www.w3.org/1999/xlink" id="wave" style="transform:rotate(180deg); transition: 0.3s" viewBox="0 0 1440 100" version="1.1" xmlns="http://www.w3.org/2000/svg"><defs><linearGradient id="sw-gradient-0" x1="0" x2="0" y1="1" y2="0"><stop stop-color=" #fff0eb" offset="0%"/><stop stop-color=" #fff0eb" offset="100%"/></linearGradient></defs><path style="transform:translate(0, 0px); opacity:1" fill="url(#sw-gradient-0)" d="M0,20L34.3,18.3C68.6,17,137,13,206,15C274.3,17,343,23,411,30C480,37,549,43,617,51.7C685.7,60,754,70,823,61.7C891.4,53,960,27,1029,23.3C1097.1,20,1166,40,1234,43.3C1302.9,47,1371,33,1440,30C1508.6,27,1577,33,1646,45C1714.3,57,1783,73,1851,70C1920,67,1989,43,2057,36.7C2125.7,30,2194,40,2263,43.3C2331.4,47,2400,43,2469,48.3C2537.1,53,2606,67,2674,75C2742.9,83,2811,87,2880,80C2948.6,73,3017,57,3086,41.7C3154.3,27,3223,13,3291,15C3360,17,3429,33,3497,48.3C3565.7,63,3634,77,3703,83.3C3771.4,90,3840,90,3909,81.7C3977.1,73,4046,57,4114,50C4182.9,43,4251,47,4320,40C4388.6,33,4457,17,4526,20C4594.3,23,4663,47,4731,58.3C4800,70,4869,70,4903,70L4937.1,70L4937.1,100L4902.9,100C4868.6,100,4800,100,4731,100C4662.9,100,4594,100,4526,100C4457.1,100,4389,100,4320,100C4251.4,100,4183,100,4114,100C4045.7,100,3977,100,3909,100C3840,100,3771,100,3703,100C3634.3,100,3566,100,3497,100C3428.6,100,3360,100,3291,100C3222.9,100,3154,100,3086,100C3017.1,100,2949,100,2880,100C2811.4,100,2743,100,2674,100C2605.7,100,2537,100,2469,100C2400,100,2331,100,2263,100C2194.3,100,2126,100,2057,100C1988.6,100,1920,100,1851,100C1782.9,100,1714,100,1646,100C1577.1,100,1509,100,1440,100C1371.4,100,1303,100,1234,100C1165.7,100,1097,100,1029,100C960,100,891,100,823,100C754.3,100,686,100,617,100C548.6,100,480,100,411,100C342.9,100,274,100,206,100C137.1,100,69,100,34,100L0,100Z"/></svg>